<svg width="98" height="41" viewBox="0 0 98 41" fill="none" xmlns="http://www.w3.org/2000/svg">
<path d="M59.9343 8H45.9602V31.2727H59.0213C58.2915 30.1666 57.6686 28.9836 57.1673 27.7386H50.1761V21.3864H55.7578C55.7375 21.0177 55.7273 20.6464 55.7273 20.2727C55.7273 19.4535 55.7765 18.6457 55.8722 17.8523H50.1761V11.5341H57.7323C58.3441 10.2767 59.0837 9.09304 59.9343 8Z" fill="#3A3A3A"/>
<path d="M0 8V11.5341H7.19318V31.2727H11.375V11.5341H18.5682V8H0Z" fill="#3A3A3A"/>
<path d="M22.1477 8V31.2727H26.3636V21.3864H37.1477V31.2727H41.375V8H37.1477V17.8523H26.3636V8H22.1477Z" fill="#3A3A3A"/>
<path fill-rule="evenodd" clip-rule="evenodd" d="M88.3673 35.7189C84.964 38.4002 80.6688 40 76 40C64.9543 40 56 31.0457 56 20C56 8.95431 64.9543 0 76 0C87.0457 0 96 8.95431 96 20C96 24.4909 94.5198 28.6362 92.0207 31.9744C92.3006 32.7448 92.6821 33.1997 93.1468 33.5675C94.0206 34.2593 95.4142 34.8269 97.9557 35.6112L96.4813 40.3888C94.0193 39.6291 91.7501 38.8389 90.0434 37.4878C89.378 36.9611 88.8239 36.3733 88.3673 35.7189ZM83.1698 13.3333C83.1698 15.0006 81.7619 16.3522 80.0252 16.3522C78.2884 16.3522 76.8805 15.0006 76.8805 13.3333C76.8805 11.6661 78.2884 10.3145 80.0252 10.3145C81.7619 10.3145 83.1698 11.6661 83.1698 13.3333ZM68.7044 22.1384C70.3022 22.1384 71.5975 20.8431 71.5975 19.2453C71.5975 17.6475 70.3022 16.3522 68.7044 16.3522C67.1066 16.3522 65.8113 17.6475 65.8113 19.2453C65.8113 20.8431 67.1066 22.1384 68.7044 22.1384ZM83.8734 27.4094C83.0225 28.9444 81.2249 29.5746 79.8582 28.817C78.4916 28.0594 78.0734 26.201 78.9242 24.6661C79.7751 23.1311 81.5727 22.5009 82.9394 23.2585C84.306 24.016 84.7242 25.8745 83.8734 27.4094ZM91.6669 28.4885C92.3621 28.798 93.5042 27.7492 94.218 26.1459C94.9319 24.5427 94.947 22.9921 94.2519 22.6826C93.5568 22.3731 92.4146 23.4219 91.7008 25.0252C90.987 26.6285 90.9718 28.179 91.6669 28.4885ZM82.1216 37.6263C80.5192 38.0858 79.0902 38.0051 78.9299 37.446C78.7696 36.887 79.9387 36.0613 81.5411 35.6018C83.1435 35.1424 84.5724 35.2231 84.7327 35.7821C84.893 36.3412 83.724 37.1668 82.1216 37.6263ZM66.6609 31.5244C66.2346 32.2067 67.0306 33.4731 68.4388 34.3531C69.8471 35.2331 71.3343 35.3933 71.7606 34.7111C72.1869 34.0288 71.3909 32.7624 69.9827 31.8824C68.5744 31.0025 67.0872 30.8422 66.6609 31.5244ZM57.654 24.4614C57.1442 22.7939 57.3188 21.2624 58.0441 21.0406C58.7694 20.8189 59.7706 21.9909 60.2804 23.6584C60.7902 25.3259 60.6156 26.8575 59.8903 27.0792C59.165 27.3009 58.1638 26.1289 57.654 24.4614ZM92.639 16.4051C93.3286 16.0835 93.2864 14.5334 92.5447 12.9429C91.803 11.3523 90.6427 10.3236 89.9531 10.6452C89.2635 10.9667 89.3057 12.5168 90.0473 14.1074C90.789 15.6979 91.9493 16.7266 92.639 16.4051ZM85.2603 3.93775C86.6573 4.7121 87.5155 5.83448 87.1773 6.44466C86.8391 7.05483 85.4324 6.92174 84.0355 6.14739C82.6385 5.37304 81.7802 4.25067 82.1185 3.64049C82.4567 3.03032 83.8633 3.16341 85.2603 3.93775ZM75.3467 1.21439C75.1553 0.546721 73.6151 0.402621 71.9065 0.89253C70.198 1.38244 68.9682 2.32084 69.1596 2.98851C69.3511 3.65618 70.8913 3.80028 72.5998 3.31037C74.3084 2.82046 75.5382 1.88206 75.3467 1.21439ZM60.9013 8.79061C61.8625 7.25227 63.2286 6.37192 63.9526 6.82428C64.6765 7.27664 64.4841 8.89042 63.5228 10.4287C62.5616 11.9671 61.1955 12.8474 60.4715 12.3951C59.7476 11.9427 59.94 10.3289 60.9013 8.79061Z" fill="#34D399"/>
</svg>
