<svg width="42" height="41" viewBox="0 0 42 41" fill="none" xmlns="http://www.w3.org/2000/svg">
<path fill-rule="evenodd" clip-rule="evenodd" d="M32.3673 35.7189C28.964 38.4002 24.6688 40 20 40C8.9543 40 0 31.0457 0 20C0 8.95431 8.9543 0 20 0C31.0457 0 40 8.95431 40 20C40 24.4909 38.5198 28.6362 36.0207 31.9744C36.3006 32.7448 36.6821 33.1997 37.1468 33.5675C38.0206 34.2593 39.4142 34.8269 41.9557 35.6112L40.4813 40.3888C38.0193 39.6291 35.7501 38.8389 34.0434 37.4878C33.378 36.9611 32.8239 36.3733 32.3673 35.7189ZM27.1698 13.3333C27.1698 15.0006 25.7619 16.3522 24.0252 16.3522C22.2884 16.3522 20.8805 15.0006 20.8805 13.3333C20.8805 11.6661 22.2884 10.3145 24.0252 10.3145C25.7619 10.3145 27.1698 11.6661 27.1698 13.3333ZM12.7044 22.1384C14.3022 22.1384 15.5975 20.8431 15.5975 19.2453C15.5975 17.6475 14.3022 16.3522 12.7044 16.3522C11.1066 16.3522 9.81132 17.6475 9.81132 19.2453C9.81132 20.8431 11.1066 22.1384 12.7044 22.1384ZM27.8734 27.4094C27.0225 28.9444 25.2249 29.5746 23.8582 28.817C22.4916 28.0594 22.0734 26.201 22.9242 24.6661C23.7751 23.1311 25.5727 22.5009 26.9394 23.2585C28.306 24.016 28.7242 25.8745 27.8734 27.4094ZM35.6669 28.4885C36.362 28.798 37.5042 27.7492 38.218 26.1459C38.9319 24.5427 38.947 22.9921 38.2519 22.6826C37.5568 22.3731 36.4146 23.4219 35.7008 25.0252C34.987 26.6285 34.9718 28.179 35.6669 28.4885ZM26.1216 37.6263C24.5192 38.0858 23.0902 38.0051 22.9299 37.446C22.7696 36.887 23.9387 36.0613 25.5411 35.6018C27.1435 35.1424 28.5724 35.2231 28.7327 35.7821C28.893 36.3412 27.724 37.1668 26.1216 37.6263ZM10.6609 31.5244C10.2346 32.2067 11.0306 33.4731 12.4388 34.3531C13.8471 35.2331 15.3343 35.3933 15.7606 34.7111C16.1869 34.0288 15.3909 32.7624 13.9827 31.8824C12.5744 31.0025 11.0872 30.8422 10.6609 31.5244ZM1.65398 24.4614C1.14417 22.7939 1.31884 21.2624 2.04411 21.0406C2.76938 20.8189 3.77061 21.9909 4.28042 23.6584C4.79023 25.3259 4.61556 26.8575 3.89029 27.0792C3.16501 27.3009 2.16379 26.1289 1.65398 24.4614ZM36.639 16.4051C37.3286 16.0835 37.2864 14.5334 36.5447 12.9429C35.803 11.3523 34.6427 10.3236 33.9531 10.6452C33.2634 10.9667 33.3057 12.5168 34.0474 14.1074C34.789 15.6979 35.9493 16.7266 36.639 16.4051ZM29.2603 3.93775C30.6573 4.7121 31.5155 5.83448 31.1773 6.44466C30.8391 7.05483 29.4324 6.92174 28.0355 6.14739C26.6385 5.37304 25.7802 4.25067 26.1185 3.64049C26.4567 3.03032 27.8633 3.16341 29.2603 3.93775ZM19.3467 1.21439C19.1553 0.546721 17.6151 0.402621 15.9065 0.89253C14.198 1.38244 12.9682 2.32084 13.1596 2.98851C13.3511 3.65618 14.8913 3.80028 16.5998 3.31037C18.3084 2.82046 19.5382 1.88206 19.3467 1.21439ZM4.90126 8.79061C5.86251 7.25227 7.22862 6.37192 7.95255 6.82428C8.67648 7.27664 8.48409 8.89042 7.52283 10.4287C6.56157 11.9671 5.19546 12.8474 4.47154 12.3951C3.74761 11.9427 3.94 10.3289 4.90126 8.79061Z" fill="#34D399"/>
</svg>
